<svg width="37" height="36" viewBox="0 0 37 36" fill="none" xmlns="http://www.w3.org/2000/svg">
<path d="M6.24925 31.138C5.89452 31.138 5.5398 31.0029 5.26959 30.732C4.72849 30.1909 4.72849 29.3137 5.26959 28.7726L28.7848 5.25739C29.3253 4.71629 30.2038 4.71629 30.7442 5.25739C31.2853 5.79848 31.2853 6.6756 30.7442 7.2167L7.22891 30.732C6.95871 31.0022 6.60398 31.138 6.24925 31.138Z" fill="url(#paint0_linear)"/>
<path d="M17.9603 36C17.9596 36 17.9603 36 17.9603 36C16.3848 36 14.8225 35.7949 13.317 35.3896C6.82932 33.6444 1.74951 28.2701 0.375637 21.6973C-1.02457 15.0011 1.55968 7.96197 6.96027 3.76413C10.0821 1.33716 14.0195 0 18.0476 0C20.8362 0 23.6054 0.648486 26.0567 1.8741C32.1099 4.90245 36.0209 11.2293 36.0209 17.9934C36.0209 23.5125 33.4166 28.832 29.0545 32.2227C25.9209 34.6587 21.9808 36 17.9603 36ZM18.0483 2.77131C14.6333 2.77131 11.2994 3.90062 8.66185 5.95208C4.09127 9.5049 1.90332 15.4625 3.08875 21.1298C4.25131 26.6898 8.54892 31.2368 14.0375 32.7139C15.3081 33.0555 16.628 33.2287 17.9603 33.2287C21.3683 33.2287 24.7043 32.0945 27.3543 30.0348C31.0457 27.1651 33.2496 22.6638 33.2496 17.9934C33.2496 12.27 29.94 6.9158 24.8172 4.35303C22.7491 3.31864 20.4087 2.77131 18.0483 2.77131Z" fill="black"/>
<defs>
<linearGradient id="paint0_linear" x1="4.86377" y1="31.1379" x2="33.0128" y2="25.285" gradientUnits="userSpaceOnUse">
<stop stop-color="#7000E9"/>
<stop offset="0.22631" stop-color="#FF00C5"/>
<stop offset="0.507577" stop-color="#FF0076"/>
<stop offset="1" stop-color="#005CE3"/>
</linearGradient>
</defs>
</svg>
