<svg width="60" height="60" viewBox="0 0 60 60" fill="none" xmlns="http://www.w3.org/2000/svg">
<path d="M10.4094 51.8663C9.81849 51.8663 9.22762 51.6412 8.77754 51.19C7.87624 50.2887 7.87624 48.8277 8.77754 47.9264L47.9469 8.75703C48.847 7.85573 50.3104 7.85573 51.2105 8.75703C52.1118 9.65834 52.1118 11.1194 51.2105 12.0207L12.0412 51.19C11.5911 51.6401 11.0002 51.8663 10.4094 51.8663Z" fill="#F7316E"/>
<path d="M29.9164 59.9652C29.9153 59.9652 29.9164 59.9652 29.9164 59.9652C27.2921 59.9652 24.6898 59.6236 22.182 58.9485C11.3756 56.0414 2.91416 47.0895 0.625698 36.1411C-1.70662 24.9873 2.59796 13.2622 11.5937 6.26991C16.7938 2.2273 23.3522 0 30.0618 0C34.7069 0 39.3196 1.08018 43.4026 3.12168C53.4854 8.166 60 18.7047 60 29.9716C60 39.1647 55.662 48.0255 48.3961 53.6733C43.1764 57.7309 36.6133 59.9652 29.9164 59.9652ZM30.063 4.61617C24.3747 4.61617 18.8215 6.49726 14.428 9.91437C6.81482 15.8323 3.17036 25.7559 5.14493 35.196C7.08141 44.4572 14.2399 52.0311 23.3822 54.4915C25.4988 55.0605 27.6972 55.349 29.9164 55.349C35.5932 55.349 41.1499 53.4598 45.5641 50.0289C51.7128 45.2488 55.3838 37.751 55.3838 29.9716C55.3838 20.4381 49.871 11.5196 41.338 7.25084C37.8932 5.52786 33.9948 4.61617 30.063 4.61617Z" fill="#F7316E"/>
</svg>
