<svg width="36" height="36" viewBox="0 0 36 36" fill="none" xmlns="http://www.w3.org/2000/svg">
<path d="M31.5056 32.4944C31.5056 32.9888 31.1011 33.3933 30.6067 33.3933C30.1124 33.3933 29.7079 32.9888 29.7079 32.4944C29.7079 32 30.1124 31.5955 30.6067 31.5955C31.1011 31.5955 31.5056 32 31.5056 32.4944ZM22.0225 32C21.5281 32 21.1236 32.4045 21.1236 32.8989C21.1236 33.3933 21.5281 33.7978 22.0225 33.7978C22.5169 33.7978 22.9213 33.3933 22.9213 32.8989C22.8764 32.3596 22.5169 32 22.0225 32ZM10.9663 22.1573C10.4719 22.1573 10.0674 22.5618 10.0674 23.0562C10.0674 23.5506 10.4719 23.9551 10.9663 23.9551C11.4607 23.9551 11.8652 23.5506 11.8652 23.0562C11.8652 22.5618 11.4607 22.1573 10.9663 22.1573ZM34.9663 24.6742C34.4719 24.6742 34.0674 25.0787 34.0674 25.573C34.0674 26.0674 34.4719 26.4719 34.9663 26.4719C35.4607 26.4719 35.8652 26.0674 35.8652 25.573C35.8652 25.0787 35.4607 24.6742 34.9663 24.6742ZM19.6854 13.8876C19.6854 14.382 20.0899 14.7865 20.5843 14.7865C21.0787 14.7865 21.4831 14.382 21.4831 13.8876C21.4831 13.3933 21.0787 12.9888 20.5843 12.9888C20.0899 12.9888 19.6854 13.3933 19.6854 13.8876ZM28.2697 7.32584C28.764 7.32584 29.1685 6.92135 29.1685 6.42697C29.1685 5.93258 28.764 5.52809 28.2697 5.52809C27.7753 5.52809 27.3708 5.93258 27.3708 6.42697C27.3708 6.92135 27.7753 7.32584 28.2697 7.32584ZM32.4045 15.5056C31.9101 15.5056 31.5056 15.9101 31.5056 16.4045C31.5056 16.8989 31.9101 17.3034 32.4045 17.3034C32.8989 17.3034 33.3034 16.8989 33.3034 16.4045C33.3034 15.9101 32.8539 15.5056 32.4045 15.5056ZM11.8652 12.6292C12.3595 12.6292 12.764 12.2247 12.764 11.7303C12.764 11.236 12.3595 10.8315 11.8652 10.8315C11.3708 10.8315 10.9663 11.236 10.9663 11.7303C10.9663 12.2247 11.3708 12.6292 11.8652 12.6292ZM13.618 1.79775C14.1124 1.79775 14.5169 1.39326 14.5169 0.898876C14.5169 0.404494 14.1124 0 13.618 0C13.1236 0 12.7191 0.404494 12.7191 0.898876C12.7191 1.39326 13.1236 1.79775 13.618 1.79775ZM7.05618 17.9775C7.05618 18.4719 7.46067 18.8764 7.95506 18.8764C8.44944 18.8764 8.85393 18.4719 8.85393 17.9775C8.85393 17.4831 8.44944 17.0787 7.95506 17.0787C7.46067 17.0787 7.05618 17.4831 7.05618 17.9775ZM7.05618 6.74157C7.55056 6.74157 7.95506 6.33708 7.95506 5.8427C7.95506 5.34831 7.55056 4.94382 7.05618 4.94382C6.5618 4.94382 6.1573 5.34831 6.1573 5.8427C6.1573 6.33708 6.5618 6.74157 7.05618 6.74157ZM0.898876 25.3933C0.404494 25.3933 0 25.7978 0 26.2921C0 26.7865 0.404494 27.191 0.898876 27.191C1.39326 27.191 1.79775 26.7865 1.79775 26.2921C1.75281 25.7978 1.34831 25.3933 0.898876 25.3933ZM16.809 5.79775C16.7191 5.16854 16.9888 4.58427 17.5281 4.26966C18.0674 3.95506 18.7416 4.04494 19.236 4.44944C19.3708 4.53933 19.5056 4.7191 19.6404 4.94382C19.6854 4.31461 19.4157 3.59551 18.8764 2.83146C18.7416 2.65169 18.7865 2.38202 18.9663 2.24719C19.1461 2.11236 19.4157 2.1573 19.5506 2.33708C20.9888 4.35955 20.4045 5.75281 20.0899 6.24719C20.0899 6.24719 20.0899 6.29214 20.0449 6.29214C20.1348 7.01124 20.0449 8 19.6404 9.34832C19.5955 9.52809 19.4157 9.66292 19.236 9.66292C19.191 9.66292 19.1461 9.66292 19.1011 9.66292C18.8764 9.57303 18.7416 9.34832 18.8315 9.1236C19.1011 8.26966 19.191 7.59551 19.236 7.05618C18.8764 7.19101 18.427 7.2809 17.9775 7.14607C17.3483 7.01124 16.8989 6.51685 16.809 5.79775ZM17.7079 5.70787C17.7528 6.06742 17.9326 6.29214 18.2022 6.33708C18.4719 6.38202 18.9213 6.29213 19.236 6.02247C19.1011 5.48315 18.8764 5.25843 18.7416 5.16854C18.6067 5.03371 18.427 4.98876 18.2921 4.98876C18.1573 4.98876 18.0674 5.03371 17.9775 5.07865C17.7528 5.16854 17.6629 5.39326 17.7079 5.70787ZM32.9888 20.6292C32.8989 20.8539 32.6292 20.9438 32.4045 20.8539C28.6742 19.3258 25.0337 20.3596 22.9213 21.3034C23.3258 21.7978 23.6404 22.2921 23.9551 22.7865C25.2135 22.3371 26.2022 22.6966 26.6966 22.9213C26.9663 23.0562 27.191 23.191 27.4157 23.3708C28.3146 23.0112 29.618 22.7865 31.191 22.8315C31.4157 22.8315 31.6404 23.0112 31.6404 23.2809C31.6404 23.5056 31.4607 23.7303 31.191 23.7303C31.191 23.7303 31.1011 23.7303 31.0562 23.7303C29.618 23.7303 28.6742 23.9101 28.0449 24.0899C28.4944 24.6742 28.7191 25.3483 28.5843 25.8876C28.4494 26.382 28.0899 26.6966 27.5056 26.6966C26.8764 26.6966 26.3371 26.382 26.0225 25.8876C25.7528 25.4382 25.7528 24.8989 26.0225 24.4494C26.1573 24.2247 26.2921 24.0449 26.5169 23.8652C26.427 23.8202 26.3371 23.7753 26.2472 23.7303C25.618 23.4157 24.9888 23.3708 24.3146 23.5506C25.3034 25.3483 25.6629 26.8764 24.8989 27.6854C24.809 27.7753 24.6742 27.8652 24.5393 27.9551C24.5393 27.9551 24.5393 27.9551 24.4944 28C24.3596 28.0449 9.79775 34.2022 6.06742 35.8652C5.8427 35.9551 5.61798 36 5.39326 36C4.53933 36 3.86517 35.3258 3.86517 34.4719C3.86517 34.2921 3.91011 34.0674 4 33.8876L10.9213 14.6517C10.9213 14.6517 10.9213 14.6067 10.9663 14.6067C11.0562 14.382 11.1461 14.2022 11.2809 14.0674C12.0899 13.2135 13.7978 13.7079 15.7303 14.8315C15.6854 13.1236 15.4157 11.3258 14.5618 9.97753C13.8876 8.89888 12.8989 8.17978 11.6404 7.91011C11.4157 7.86517 11.236 7.64045 11.3258 7.41573C11.3708 7.19101 11.5955 7.01124 11.8202 7.10112C13.3483 7.41573 14.5169 8.22472 15.3258 9.52809C16.3595 11.191 16.6742 13.4382 16.6292 15.4157C17.8876 16.2697 19.236 17.3933 20.4045 18.5618C21.0337 19.191 21.6629 19.9101 22.2472 20.5843C24.4494 19.5506 28.4494 18.2921 32.6292 20.0449C32.9888 20.1798 33.0787 20.4045 32.9888 20.6292ZM26.8764 25.4831C27.0112 25.7079 27.2809 25.8427 27.5955 25.8427C27.7753 25.8427 27.8202 25.7978 27.8202 25.7079C27.8652 25.4831 27.6854 24.9438 27.2809 24.4944C27.0112 24.6742 26.9213 24.809 26.8764 24.8989C26.7865 25.1685 26.8315 25.3483 26.8764 25.4831ZM22.6517 27.9101C22.2472 27.7753 21.7528 27.5506 21.2584 27.2809C19.5955 26.427 17.7528 24.9438 15.9551 23.191C14.2022 21.4382 12.7191 19.5506 11.8652 17.8876C11.6404 17.4382 11.4607 17.0337 11.2809 16.6292L4.94382 34.2472C4.94382 34.2472 4.94382 34.2472 4.94382 34.2921C4.94382 34.3371 4.89888 34.427 4.89888 34.4719C4.89888 34.8315 5.16854 35.1011 5.52809 35.1011C5.61798 35.1011 5.66292 35.1011 5.75281 35.0562L5.8427 35.0112H5.88764C8.94382 33.7079 18.6966 29.573 22.6517 27.9101ZM22.1573 21.7079C21.5281 22.0674 21.1236 22.3371 21.1236 22.3371C21.0337 22.382 20.9438 22.427 20.8539 22.427C20.7191 22.427 20.5843 22.382 20.4944 22.2472C20.3595 22.0674 20.4045 21.7978 20.5843 21.6629C20.6292 21.618 20.9888 21.3933 21.573 21.0787C21.0787 20.4944 20.5393 19.8652 19.9101 19.2809C18.7865 18.1573 17.7079 17.2584 16.7191 16.5393C16.5843 18.5618 16.2247 20.1798 16.1798 20.3146C16.1348 20.4944 15.9551 20.6292 15.7753 20.6292C15.7303 20.6292 15.6854 20.6292 15.6854 20.6292C15.4607 20.5843 15.3258 20.3596 15.3708 20.0899C15.3708 20.0449 15.8202 18.2022 15.9101 15.9551C14.4719 15.0562 13.3483 14.6067 12.6292 14.6067C12.3595 14.6067 12.1798 14.6517 12.0449 14.7865C11.7753 15.0562 11.7753 15.9551 12.6292 17.573C13.4831 19.1461 14.8764 20.9438 16.5843 22.6517C18.2921 24.3596 20.0899 25.7528 21.6629 26.6067C23.2809 27.4607 24.1798 27.4607 24.4494 27.191C24.8539 26.7865 24.5843 25.618 23.6854 24.0449C23.1461 24.3596 22.6067 24.809 22.0674 25.4382C21.9326 25.618 21.618 25.6629 21.4382 25.4831C21.2584 25.3483 21.2135 25.0337 21.3933 24.8539C22.0225 24.0899 22.6517 23.5955 23.191 23.2809C22.9213 22.7416 22.5618 22.2472 22.1573 21.7079ZM20.8539 16.6742C20.9438 16.764 21.0337 16.809 21.1685 16.809C21.3034 16.809 21.3933 16.764 21.4831 16.6742C26.0674 11.9551 26.1573 6.69663 26.1573 6.47191C26.1573 6.24719 25.9775 6.02247 25.7079 6.02247C25.4831 6.02247 25.2584 6.20225 25.2584 6.47191C25.2584 6.51685 25.1685 11.6404 20.8539 16.0899C20.6742 16.2247 20.6742 16.4944 20.8539 16.6742ZM35.3708 10.0674C34.1124 13.3933 32.4494 13.7528 31.5506 13.6629C31.4607 13.6629 31.4157 13.6629 31.3258 13.618C30.6517 14.1573 29.6629 14.6966 28.1348 15.236C28.0899 15.236 28.0449 15.2809 28 15.2809C27.8202 15.2809 27.6404 15.1461 27.5955 14.9663C27.5056 14.7416 27.6404 14.4719 27.8652 14.427C28.9888 14.0674 29.7978 13.6629 30.382 13.2584C29.9326 12.8989 29.618 12.4045 29.5281 11.9551C29.3933 11.3258 29.7079 10.7416 30.2921 10.4719C30.8764 10.1573 31.5506 10.2022 32 10.5169C32.4045 10.8315 32.6292 11.3258 32.5393 11.8652C32.4944 12.0899 32.4045 12.4045 32.1798 12.764C33.0787 12.4944 33.9326 11.4607 34.5618 9.75281C34.6517 9.52809 34.9213 9.4382 35.1011 9.48315C35.3708 9.57303 35.4607 9.8427 35.3708 10.0674ZM31.5056 11.191C31.4157 11.1011 31.2809 11.1011 31.1461 11.1011C31.0112 11.1011 30.8315 11.1461 30.6966 11.236C30.4719 11.3708 30.382 11.5506 30.427 11.7753C30.4719 12.0899 30.7416 12.4494 31.1461 12.6292C31.5056 12.2697 31.6404 11.9551 31.6854 11.6854C31.7303 11.5056 31.6854 11.3258 31.5056 11.191Z" fill="url(#paint0_linear)"/>
<defs>
<linearGradient id="paint0_linear" x1="-1.20795e-06" y1="36" x2="38.4188" y2="28.0415" gradientUnits="userSpaceOnUse">
<stop stop-color="#7000E9"/>
<stop offset="0.22631" stop-color="#FF00C5"/>
<stop offset="0.507577" stop-color="#FF0076"/>
<stop offset="1" stop-color="#005CE3"/>
</linearGradient>
</defs>
</svg>
