<svg width="31" height="36" viewBox="0 0 31 36" fill="none" xmlns="http://www.w3.org/2000/svg">
<path d="M12.7383 6.80859C9.85731 6.80859 7.51343 9.15251 7.51343 12.0335C7.51343 14.9144 9.85731 17.2583 12.7383 17.2583C15.6192 17.2583 17.9639 14.9144 17.9639 12.0335C17.9639 9.15251 15.6192 6.80859 12.7383 6.80859ZM12.7383 9.44911C13.5311 9.44911 14.1821 10.0993 14.1821 10.8922C14.1821 11.685 13.5311 12.3352 12.7383 12.3352C11.9454 12.3352 11.2952 11.685 11.2952 10.8922C11.2952 10.0993 11.9454 9.44911 12.7383 9.44911ZM12.7383 10.2694C12.3885 10.2694 12.1155 10.5424 12.1155 10.8922C12.1155 11.242 12.3884 11.515 12.7383 11.515C13.0882 11.515 13.3611 11.242 13.3611 10.8922C13.3611 10.5424 13.0881 10.2694 12.7383 10.2694ZM10.2623 12.0527H11.0825V13.7975H14.3948V12.0527H15.2151V14.6186H10.2623V12.1418V12.0527Z" fill="#525F7F"/>
<path fill-rule="evenodd" clip-rule="evenodd" d="M6.23041 19.6465V19.7364V20.4675H19.2476V19.6465H6.23041Z" fill="#525F7F"/>
<path fill-rule="evenodd" clip-rule="evenodd" d="M6.23047 22.8574V22.9473V23.6785H17.4209C17.6975 23.3829 17.9943 23.1082 18.3126 22.8574H6.23047Z" fill="#525F7F"/>
<path fill-rule="evenodd" clip-rule="evenodd" d="M0 0V0.410925V33.6958H16.7404C16.5529 33.432 16.3767 33.1601 16.2219 32.874H0.821849V0.821849H24.6555V21.2838C24.9346 21.3349 25.2091 21.3986 25.4773 21.478V0H0Z" fill="#525F7F"/>
<path fill-rule="evenodd" clip-rule="evenodd" d="M6.23047 26.0664V26.1563V26.8874H15.5886C15.67 26.6075 15.7631 26.3328 15.8736 26.0664H6.23047Z" fill="#525F7F"/>
<path d="M23.2224 22.2051C19.4178 22.2051 16.325 25.2987 16.325 29.1033C16.325 32.9078 19.4178 36.0007 23.2224 36.0007C27.0269 36.0007 30.1198 32.9078 30.1198 29.1033C30.1198 25.2987 27.0269 22.2051 23.2224 22.2051ZM23.2224 23.0269C26.5828 23.0269 29.298 25.7429 29.298 29.1033C29.298 32.4637 26.5828 35.1789 23.2224 35.1789C19.862 35.1789 17.1468 32.4637 17.1468 29.1033C17.1468 25.7429 19.862 23.0269 23.2224 23.0269Z" fill="url(#paint0_linear)"/>
<path fill-rule="evenodd" clip-rule="evenodd" d="M20.0263 29.5385L21.4791 30.9913L22.0603 31.5725L26.4188 27.214L25.8377 26.6328L22.0603 30.4102L20.6074 28.9574L20.0263 29.5385Z" fill="url(#paint1_linear)"/>
<defs>
<linearGradient id="paint0_linear" x1="16.325" y1="36.0007" x2="31.0975" y2="32.9292" gradientUnits="userSpaceOnUse">
<stop stop-color="#7000E9"/>
<stop offset="0.22631" stop-color="#FF00C5"/>
<stop offset="0.507577" stop-color="#FF0076"/>
<stop offset="1" stop-color="#005CE3"/>
</linearGradient>
<linearGradient id="paint1_linear" x1="20.0263" y1="31.5725" x2="26.6856" y2="29.7805" gradientUnits="userSpaceOnUse">
<stop stop-color="#7000E9"/>
<stop offset="0.22631" stop-color="#FF00C5"/>
<stop offset="0.507577" stop-color="#FF0076"/>
<stop offset="1" stop-color="#005CE3"/>
</linearGradient>
</defs>
</svg>
