<svg width="37" height="32" viewBox="0 0 37 32" fill="none" xmlns="http://www.w3.org/2000/svg">
<path d="M20.5983 24.2332C20.9254 24.2332 21.2283 24.3665 21.4585 24.5846C21.6766 24.8148 21.8099 25.1178 21.8099 25.4449C21.8099 25.7721 21.6766 26.075 21.4585 26.3052C21.2283 26.5233 20.9254 26.6566 20.5983 26.6566H6.05831C4.4468 26.6566 2.90799 26.0144 1.76903 24.8875C0.642181 23.7486 0 22.2098 0 20.5983V6.05831C0 4.4468 0.642181 2.90799 1.76903 1.76903C2.90799 0.642181 4.4468 0 6.05831 0H30.2916C31.9031 0 33.4419 0.642181 34.5808 1.76903C35.7077 2.90799 36.3499 4.4468 36.3499 6.05831V19.3866C36.3499 19.7137 36.2166 20.0167 35.9985 20.2469C35.7683 20.465 35.4654 20.5983 35.1382 20.5983C34.8111 20.5983 34.5081 20.465 34.2779 20.2469C34.0598 20.0167 33.9265 19.7137 33.9265 19.3866V6.05831C33.9265 5.08898 33.5388 4.16812 32.8603 3.48959C32.1818 2.81106 31.2609 2.42332 30.2916 2.42332H6.05831C5.08898 2.42332 4.16812 2.81106 3.48959 3.48959C2.81106 4.16812 2.42332 5.08898 2.42332 6.05831V20.5983C2.42332 21.5676 2.81106 22.4885 3.48959 23.167C4.16812 23.8455 5.08898 24.2332 6.05831 24.2332H20.5983Z" fill="#525F7F"/>
<path d="M34.593 4.97852C34.8838 4.83312 35.2109 4.80888 35.526 4.90582C35.8289 5.01487 36.0833 5.23297 36.2166 5.51165C36.362 5.80245 36.3862 6.12959 36.2893 6.44463C36.1803 6.74754 35.9622 7.00199 35.6835 7.13528L20.8891 14.5385C20.877 14.5385 20.8648 14.5506 20.8527 14.5506C20.0167 14.9384 19.0958 15.1322 18.175 15.1201C17.2541 15.1322 16.3332 14.9384 15.4972 14.5506C15.4851 14.5506 15.4729 14.5385 15.4608 14.5385L0.666432 7.13528C0.38775 7.00199 0.169651 6.74754 0.0606012 6.44463C-0.0363318 6.12959 -0.0120985 5.80245 0.133301 5.51165C0.266584 5.23297 0.521033 5.01487 0.823948 4.90582C1.13898 4.80888 1.46613 4.83312 1.75693 4.97852L16.5392 12.3575C17.0481 12.5999 17.6055 12.7089 18.175 12.6968C18.7444 12.7089 19.3018 12.5999 19.8107 12.3575L34.593 4.97852Z" fill="#525F7F"/>
<path d="M26.3052 25.7962L29.0799 28.583L34.278 23.3729C34.5082 23.1548 34.8111 23.0215 35.1382 23.0215C35.4654 23.0215 35.7683 23.1548 35.9985 23.3729C36.2166 23.6031 36.3499 23.906 36.3499 24.2331C36.3499 24.5603 36.2166 24.8632 35.9985 25.0934L29.0799 31.9999L24.5847 27.5168C24.3666 27.2865 24.2333 26.9836 24.2333 26.6565C24.2333 26.3293 24.3666 26.0264 24.5847 25.7962C24.8149 25.5781 25.1178 25.4448 25.4449 25.4448C25.7721 25.4448 26.075 25.5781 26.3052 25.7962Z" fill="url(#paint0_linear)"/>
<defs>
<linearGradient id="paint0_linear" x1="24.2333" y1="31.9999" x2="36.7815" y2="28.4788" gradientUnits="userSpaceOnUse">
<stop stop-color="#7000E9"/>
<stop offset="0.22631" stop-color="#FF00C5"/>
<stop offset="0.507577" stop-color="#FF0076"/>
<stop offset="1" stop-color="#005CE3"/>
</linearGradient>
</defs>
</svg>
