<svg xmlns="http://www.w3.org/2000/svg" xmlns:xlink="http://www.w3.org/1999/xlink" viewBox="0 0 522.06 100.22"><defs><style>.cls-1{fill:url(#linear-gradient);}.cls-2{fill:#fff;}.cls-3{fill:url(#linear-gradient-2);}.cls-4{fill:url(#linear-gradient-3);}.cls-5{fill:url(#linear-gradient-4);}.cls-6{fill:url(#linear-gradient-5);}.cls-7{fill:url(#linear-gradient-6);}.cls-8{fill:url(#linear-gradient-7);}.cls-9{fill:url(#linear-gradient-8);}.cls-10{fill:url(#linear-gradient-9);}.cls-11{fill:url(#linear-gradient-10);}.cls-12{fill:url(#linear-gradient-11);}.cls-13{fill:url(#linear-gradient-12);}.cls-14{fill:url(#linear-gradient-13);}.cls-15{fill:url(#linear-gradient-14);}.cls-16{fill:url(#linear-gradient-15);}.cls-17{fill:url(#linear-gradient-16);}.cls-18{fill:url(#linear-gradient-17);}.cls-19{fill:url(#linear-gradient-18);}.cls-20{opacity:0.7;}.cls-21,.cls-22,.cls-23,.cls-24,.cls-25,.cls-26,.cls-27,.cls-28,.cls-29{opacity:0.53;}.cls-21{fill:url(#linear-gradient-19);}.cls-22{fill:url(#linear-gradient-20);}.cls-23{fill:url(#linear-gradient-21);}.cls-24{fill:url(#linear-gradient-22);}.cls-25{fill:url(#linear-gradient-23);}.cls-26{fill:url(#linear-gradient-24);}.cls-27{fill:url(#linear-gradient-25);}.cls-28{fill:url(#linear-gradient-26);}.cls-29{fill:url(#linear-gradient-27);}.cls-30{fill:url(#linear-gradient-28);}.cls-31{fill:url(#linear-gradient-29);}.cls-32{fill:url(#linear-gradient-30);}.cls-33{fill:url(#linear-gradient-31);}.cls-34{fill:url(#linear-gradient-32);}.cls-35{fill:url(#linear-gradient-33);}.cls-36{fill:url(#linear-gradient-34);}.cls-37{fill:url(#linear-gradient-35);}.cls-38{fill:url(#linear-gradient-36);}.cls-39{fill:url(#linear-gradient-37);}.cls-40{fill:url(#linear-gradient-38);}.cls-41{fill:url(#linear-gradient-39);}.cls-42{fill:url(#linear-gradient-40);}.cls-43{fill:url(#linear-gradient-41);}.cls-44{fill:url(#linear-gradient-42);}.cls-45{fill:url(#linear-gradient-43);}.cls-46{fill:url(#linear-gradient-44);}</style><linearGradient id="linear-gradient" x1="114.9" y1="-37.05" x2="79.76" y2="286.85" gradientTransform="translate(-31.29 -70.88) rotate(10.73)" gradientUnits="userSpaceOnUse"><stop offset="0" stop-color="#e01e6a"/><stop offset="0.99" stop-color="#e16ea7"/></linearGradient><linearGradient id="linear-gradient-2" x1="165.24" y1="-31.58" x2="130.1" y2="292.31" xlink:href="#linear-gradient"/><linearGradient id="linear-gradient-3" x1="221.3" y1="-25.5" x2="186.16" y2="298.39" xlink:href="#linear-gradient"/><linearGradient id="linear-gradient-4" x1="284.04" y1="-18.69" x2="248.9" y2="305.2" xlink:href="#linear-gradient"/><linearGradient id="linear-gradient-5" x1="334.93" y1="-13.17" x2="299.79" y2="310.72" xlink:href="#linear-gradient"/><linearGradient id="linear-gradient-6" x1="379.9" y1="-8.29" x2="344.76" y2="315.6" xlink:href="#linear-gradient"/><linearGradient id="linear-gradient-7" x1="426.01" y1="-3.29" x2="390.87" y2="320.6" xlink:href="#linear-gradient"/><linearGradient id="linear-gradient-8" x1="474.16" y1="1.93" x2="439.02" y2="325.83" xlink:href="#linear-gradient"/><linearGradient id="linear-gradient-9" x1="525.38" y1="7.49" x2="490.24" y2="331.38" xlink:href="#linear-gradient"/><linearGradient id="linear-gradient-10" x1="112.67" y1="201.27" x2="92.05" y2="47.73" xlink:href="#linear-gradient"/><linearGradient id="linear-gradient-11" x1="164.24" y1="194.35" x2="143.62" y2="40.8" xlink:href="#linear-gradient"/><linearGradient id="linear-gradient-12" x1="222" y1="186.59" x2="201.37" y2="33.04" xlink:href="#linear-gradient"/><linearGradient id="linear-gradient-13" x1="287.91" y1="177.73" x2="267.29" y2="24.19" xlink:href="#linear-gradient"/><linearGradient id="linear-gradient-14" x1="340.19" y1="170.71" x2="319.56" y2="17.17" xlink:href="#linear-gradient"/><linearGradient id="linear-gradient-15" x1="386.95" y1="164.43" x2="366.32" y2="10.89" xlink:href="#linear-gradient"/><linearGradient id="linear-gradient-16" x1="434.92" y1="157.99" x2="414.29" y2="4.44" xlink:href="#linear-gradient"/><linearGradient id="linear-gradient-17" x1="484.93" y1="151.27" x2="464.31" y2="-2.28" xlink:href="#linear-gradient"/><linearGradient id="linear-gradient-18" x1="541.11" y1="143.72" x2="520.48" y2="-9.82" xlink:href="#linear-gradient"/><linearGradient id="linear-gradient-19" x1="300.87" y1="-21.19" x2="-89.49" y2="261.45" gradientTransform="translate(-31.29 -70.88) rotate(10.73)" gradientUnits="userSpaceOnUse"><stop offset="0" stop-color="#e01e40"/><stop offset="1" stop-color="#e03d82"/></linearGradient><linearGradient id="linear-gradient-20" x1="314.21" y1="-2.77" x2="-76.15" y2="279.88" xlink:href="#linear-gradient-19"/><linearGradient id="linear-gradient-21" x1="330.21" y1="19.33" x2="-60.14" y2="301.98" xlink:href="#linear-gradient-19"/><linearGradient id="linear-gradient-22" x1="346.78" y1="42.22" x2="-43.57" y2="324.87" xlink:href="#linear-gradient-19"/><linearGradient id="linear-gradient-23" x1="359.04" y1="59.14" x2="-31.32" y2="341.79" xlink:href="#linear-gradient-19"/><linearGradient id="linear-gradient-24" x1="370.86" y1="75.47" x2="-19.5" y2="358.11" xlink:href="#linear-gradient-19"/><linearGradient id="linear-gradient-25" x1="384.03" y1="93.67" x2="-6.32" y2="376.31" xlink:href="#linear-gradient-19"/><linearGradient id="linear-gradient-26" x1="396.65" y1="111.09" x2="6.29" y2="393.73" xlink:href="#linear-gradient-19"/><linearGradient id="linear-gradient-27" x1="409.3" y1="128.56" x2="18.94" y2="411.21" xlink:href="#linear-gradient-19"/><linearGradient id="linear-gradient-28" x1="289.75" y1="-50.81" x2="-455.86" y2="489.07" gradientTransform="matrix(2.46, 0.01, -0.01, 0.92, -285.36, -20.57)" xlink:href="#linear-gradient-19"/><linearGradient id="linear-gradient-29" x1="285.72" y1="-56.37" x2="-459.89" y2="483.51" gradientTransform="matrix(2.46, 0.01, -0.01, 0.92, -285.36, -20.57)" xlink:href="#linear-gradient-19"/><linearGradient id="linear-gradient-30" x1="296.88" y1="-40.96" x2="-448.73" y2="498.92" gradientTransform="matrix(2.46, 0.01, -0.01, 0.92, -285.36, -20.57)" xlink:href="#linear-gradient-19"/><linearGradient id="linear-gradient-31" x1="293.36" y1="-45.83" x2="-452.26" y2="494.05" gradientTransform="matrix(2.46, 0.01, -0.01, 0.92, -285.36, -20.57)" xlink:href="#linear-gradient-19"/><linearGradient id="linear-gradient-32" x1="306.68" y1="-27.42" x2="-438.93" y2="512.45" gradientTransform="matrix(2.46, 0.01, -0.01, 0.92, -285.36, -20.57)" xlink:href="#linear-gradient-19"/><linearGradient id="linear-gradient-33" x1="300.35" y1="-36.18" x2="-445.27" y2="503.7" gradientTransform="matrix(2.46, 0.01, -0.01, 0.92, -285.36, -20.57)" xlink:href="#linear-gradient-19"/><linearGradient id="linear-gradient-34" x1="314.77" y1="-16.26" x2="-430.84" y2="523.62" gradientTransform="matrix(2.46, 0.01, -0.01, 0.92, -285.36, -20.57)" xlink:href="#linear-gradient-19"/><linearGradient id="linear-gradient-35" x1="310.7" y1="-21.87" x2="-434.91" y2="518" gradientTransform="matrix(2.46, 0.01, -0.01, 0.92, -285.36, -20.57)" xlink:href="#linear-gradient-19"/><linearGradient id="linear-gradient-36" x1="318.41" y1="-11.23" x2="-427.21" y2="528.65" gradientTransform="matrix(2.46, 0.01, -0.01, 0.92, -285.36, -20.57)" xlink:href="#linear-gradient-19"/><linearGradient id="linear-gradient-37" x1="321.93" y1="-6.36" x2="-423.68" y2="533.51" gradientTransform="matrix(2.46, 0.01, -0.01, 0.92, -285.36, -20.57)" xlink:href="#linear-gradient-19"/><linearGradient id="linear-gradient-38" x1="328.54" y1="2.76" x2="-417.07" y2="542.64" gradientTransform="matrix(2.46, 0.01, -0.01, 0.92, -285.36, -20.57)" xlink:href="#linear-gradient-19"/><linearGradient id="linear-gradient-39" x1="325.02" y1="-2.1" x2="-420.6" y2="537.77" gradientTransform="matrix(2.46, 0.01, -0.01, 0.92, -285.36, -20.57)" xlink:href="#linear-gradient-19"/><linearGradient id="linear-gradient-40" x1="331.79" y1="7.25" x2="-413.82" y2="547.13" gradientTransform="matrix(2.46, 0.01, -0.01, 0.92, -285.36, -20.57)" xlink:href="#linear-gradient-19"/><linearGradient id="linear-gradient-41" x1="335.31" y1="12.12" x2="-410.3" y2="551.99" gradientTransform="matrix(2.46, 0.01, -0.01, 0.92, -285.36, -20.57)" xlink:href="#linear-gradient-19"/><linearGradient id="linear-gradient-42" x1="338.84" y1="16.98" x2="-406.78" y2="556.86" gradientTransform="matrix(2.46, 0.01, -0.01, 0.92, -285.36, -20.57)" xlink:href="#linear-gradient-19"/><linearGradient id="linear-gradient-43" x1="342.4" y1="21.9" x2="-403.22" y2="561.78" gradientTransform="matrix(2.46, 0.01, -0.01, 0.92, -285.36, -20.57)" xlink:href="#linear-gradient-19"/><linearGradient id="linear-gradient-44" x1="347.67" y1="29.18" x2="-397.94" y2="569.06" gradientTransform="matrix(2.46, 0.01, -0.01, 0.92, -285.36, -20.57)" xlink:href="#linear-gradient-19"/></defs><g id="Layer_2" data-name="Layer 2"><g id="Layer_2-2" data-name="Layer 2"><polygon class="cls-1" points="0 82.81 1.96 77.93 28.68 13.61 46.89 0 83.42 0.06 94.46 16.68 84.22 41.44 55.14 41.39 48.2 58.16 77.28 58.21 65.06 87.77 47.34 99.54 11.07 99.48 0 82.81"/><path class="cls-2" d="M49.74,8.58h9.69l19.39,0,6,9L78.49,32.86l-19.38,0,6-14.52-9.7,0-26,63h9.69l6-14.53,19.39,0L58.14,82.08,44.76,91l-19.39,0-9.69,0-6-9.1.25-.6L35.69,19.07Z"/><polygon class="cls-3" points="55.41 84.15 85.65 11.04 146.2 11.14 113.98 89.04 98.04 99.62 65.66 99.57 55.41 84.15"/><path class="cls-2" d="M91.38,19.62l16.8,0-26.05,63,8.4,0,26.05-63,16.81,0L107.06,83.34l-11.6,7.71-16.8,0h-8.4l-5.18-7.8Z"/><polygon class="cls-4" points="132.8 11.12 163.91 11.17 163.87 37.31 184.83 11.2 218.55 11.25 181.95 99.75 146.6 99.7 150.07 91.3 135.01 91.28 131.53 99.67 96.19 99.62 132.8 11.12"/><path class="cls-2" d="M138.52,19.7l16.81,0-.07,42,33.68-41.95,16.8,0L176.22,91.17l-16.8,0L171,63,155.23,82.74l-16.81,0,0-22.2L125.81,91.09l-16.81,0Z"/><polygon class="cls-5" points="212.95 0.26 262.06 0.34 273.1 16.96 249.67 73.6 244.71 75.92 246.9 80.31 238.81 99.85 171.81 99.74 212.95 0.26"/><path class="cls-2" d="M218.68,8.84l14.54,0h4.85l14.54,0h4.85l6,9L243,67.25l-9.9,4.63,4.36,8.76-4.39,10.63-19.39,0,6-14.53H210l-6,14.53-19.39,0Zm15.38,9.72L214,67l9.69,0,20-48.44Z"/><polygon class="cls-6" points="234.58 84.43 259.76 23.57 276.1 11.35 308.75 11.4 319 26.82 293.15 89.32 277.21 99.91 244.82 99.86 234.58 84.43"/><path class="cls-2" d="M279,19.92h8.4l8.4,0h8.4l5.18,7.8-23.1,55.87-11.6,7.7-16.8,0h-8.4l-5.19-7.8L266.78,29Zm4.93,8.41L261.3,82.91h8.4l22.58-54.58Z"/><polygon class="cls-7" points="281.83 84.47 283.72 79.76 307.04 23.64 323.38 11.42 356.03 11.47 366.27 26.89 356.87 49.62 331.67 49.58 326.6 61.84 351.81 61.88 340.42 89.4 324.49 99.98 292.1 99.93 281.83 84.47"/><path class="cls-2" d="M326.22,20h8.4l16.81,0,5.18,7.79L351.15,41l-16.81,0,5.21-12.59h-8.4L308.58,83l8.4,0,5.21-12.6,16.8,0L333.5,83.7l-11.59,7.71-16.81,0h-8.4l-5.24-7.89.21-.52,22.38-53.87Z"/><polygon class="cls-8" points="360.53 11.48 421.08 11.58 394 77.04 390.36 78.74 391.96 81.96 384.47 100.08 349.13 100.02 323.92 99.98 360.53 11.48"/><path class="cls-2" d="M366.26,20.06l16.8,0L362.22,70.46l8.4,0L391.46,20.1l16.81,0L387.36,70.68l-8.59,4,3.78,7.6-3.81,9.21-16.8,0,5.21-12.59-8.4,0-5.21,12.6-16.81,0Z"/><polygon class="cls-9" points="384.72 74.57 384.88 74.57 410.94 11.56 458.95 11.64 471.73 11.68 455.97 49.78 430.51 49.74 425.44 61.99 433.46 62.01 428.4 74.6 445.2 74.63 434.94 100.16 374.47 100.06 384.72 74.57"/><path class="cls-2" d="M416.67,20.14l16.8,0,25.21,0h.24l-8.68,21-16.8,0,5.21-12.59-8.65,0-17.37,42h8.16L417.41,79h-8.25l-1.74,4.2,25.11,0-3.38,8.4-25.2,0-16.81,0,3.38-8.4h.1Z"/><polygon class="cls-10" points="463.56 37.19 450.97 37.17 461.51 11.64 522.06 11.74 511.51 37.26 498.9 37.24 472.86 100.22 437.51 100.16 463.56 37.19"/><path class="cls-2" d="M467.24,20.22l12.61,0,16.8,0,12.6,0-3.47,8.39-12.6,0-26.05,63-16.8,0,26-63-12.6,0Z"/><polygon class="cls-2" points="463.43 14.5 463.42 14.51 458.94 14.49 416.81 14.43 416.81 14.43 362.44 14.34 359.39 21.7 354.5 14.33 324.33 14.28 312.91 22.81 307.22 14.25 277.05 14.21 268.5 20.59 269.88 17.28 260.52 3.19 214.86 3.12 210.32 14.1 186.2 14.06 161 45.45 161.05 14.02 141.93 13.99 141.93 13.99 89.19 13.91 81.89 2.91 47.84 2.86 31.02 15.43 4.57 79.09 3.21 82.48 12.61 96.63 46.48 96.68 60.83 87.15 67.19 96.72 97.18 96.76 101.71 93.76 100.46 96.77 129.63 96.81 133.1 88.42 154.35 88.45 150.87 96.85 176.08 96.89 176.08 96.89 236.91 96.99 240.53 88.23 246.36 97 276.35 97.05 288.33 89.09 293.63 97.08 323.63 97.12 329.93 92.94 328.19 97.13 378.69 97.21 378.69 97.21 433.01 97.3 433.24 96.74 433.63 96.79 441.87 97.1 441.78 97.31 447.76 97.32 460.9 97.81 461.04 97.34 470.95 97.36 497 34.38 509.6 34.4 517.79 14.59 463.43 14.5"/><path class="cls-11" d="M49.74,8.58h9.69l19.39,0,6,9L78.49,32.86l-19.38,0,6-14.52-9.7,0-26,63h9.69l6-14.53,19.39,0L58.14,82.08,44.76,91l-19.39,0-9.69,0-6-9.1.25-.6L35.69,19.07Z"/><path class="cls-12" d="M91.38,19.62l16.8,0-26.05,63,8.4,0,26.05-63,16.81,0L107.06,83.34l-11.6,7.71-16.8,0h-8.4l-5.18-7.8Z"/><path class="cls-13" d="M138.52,19.7l16.81,0-.07,42,33.68-41.95,16.8,0L176.22,91.17l-16.8,0L171,63,155.23,82.74l-16.81,0,0-22.2L125.81,91.09l-16.81,0Z"/><path class="cls-14" d="M218.68,8.84l14.54,0h4.85l14.54,0h4.85l6,9L243,67.25l-9.9,4.63,4.36,8.76-4.39,10.63-19.39,0,6-14.53H210l-6,14.53-19.39,0Zm15.38,9.72L214,67l9.69,0,20-48.44Z"/><path class="cls-15" d="M279,19.92h8.4l8.4,0h8.4l5.18,7.8-23.1,55.87-11.6,7.7-16.8,0h-8.4l-5.19-7.8L266.78,29Zm4.93,8.41L261.3,82.91h8.4l22.58-54.58Z"/><path class="cls-16" d="M326.22,20h8.4l16.81,0,5.18,7.79L351.15,41l-16.81,0,5.21-12.59h-8.4L308.58,83l8.4,0,5.21-12.6,16.8,0L333.5,83.7l-11.59,7.71-16.81,0h-8.4l-5.24-7.89.21-.52,22.38-53.87Z"/><path class="cls-17" d="M366.26,20.06l16.8,0L362.22,70.46l8.4,0L391.46,20.1l16.81,0L387.36,70.68l-8.59,4,3.78,7.6-3.81,9.21-16.8,0,5.21-12.59-8.4,0-5.21,12.6-16.81,0Z"/><path class="cls-18" d="M416.67,20.14l16.8,0,25.21,0h.24l-8.68,21-16.8,0,5.21-12.59-8.65,0-17.37,42h8.16L417.41,79h-8.25l-1.74,4.2,25.11,0-3.38,8.4-25.2,0-16.81,0,3.38-8.4h.1Z"/><path class="cls-19" d="M467.24,20.22l12.61,0,16.8,0,12.6,0-3.47,8.39-12.6,0-26.05,63-16.8,0,26-63-12.6,0Z"/><g class="cls-20"><polygon class="cls-21" points="9.88 81.22 9.63 81.82 15.68 90.92 25.37 90.94 44.76 90.97 58.13 82.08 64.47 66.76 45.08 66.73 39.07 81.26 29.38 81.25 38.13 60.09 18.66 60.07 9.88 81.22"/><polygon class="cls-22" points="90.53 82.64 82.13 82.62 91.43 60.15 74.62 60.13 65.08 83.21 70.26 91.01 78.66 91.02 95.46 91.05 107.06 83.34 116.64 60.17 99.83 60.16 90.53 82.64"/><polygon class="cls-23" points="155.26 61.73 155.26 60.22 121.78 60.18 109 91.07 125.81 91.09 138.46 60.51 138.42 82.71 155.23 82.74 171.04 63.03 159.41 91.15 176.22 91.17 189.01 60.25 156.48 60.22 155.26 61.73"/><polygon class="cls-24" points="223.72 67.02 214.03 67 216.8 60.28 197.41 60.26 184.62 91.19 204.01 91.22 210.02 76.69 219.71 76.7 213.7 91.23 233.09 91.27 237.48 80.64 233.12 71.88 243.02 67.25 245.89 60.31 226.5 60.29 223.72 67.02"/><polygon class="cls-25" points="269.7 82.92 261.3 82.91 270.63 60.34 253.83 60.32 244.25 83.49 249.43 91.29 257.83 91.31 274.63 91.33 286.23 83.63 295.85 60.37 279.04 60.35 269.7 82.92"/><polygon class="cls-26" points="291.67 82.96 291.46 83.48 296.7 91.37 305.1 91.38 321.91 91.41 333.5 83.7 338.99 70.43 322.19 70.4 316.98 83 308.58 82.98 317.92 60.39 301.06 60.38 291.67 82.96"/><polygon class="cls-27" points="370.62 70.48 362.22 70.47 366.37 60.45 349.56 60.43 336.74 91.43 353.54 91.46 358.75 78.86 367.15 78.88 361.94 91.47 378.74 91.5 382.55 82.29 378.77 74.69 387.36 70.68 391.58 60.47 374.77 60.45 370.62 70.48"/><polygon class="cls-28" points="390.62 83.11 390.52 83.11 387.14 91.51 403.95 91.54 429.15 91.58 432.53 83.18 407.42 83.14 409.16 78.94 417.41 78.95 420.79 70.56 412.63 70.55 416.79 60.5 399.98 60.48 390.62 83.11"/><polygon class="cls-29" points="450.33 91.61 467.13 91.64 479.98 60.57 463.17 60.55 450.33 91.61"/></g><g class="cls-20"><polygon class="cls-30" points="59.11 32.82 78.49 32.86 79.39 30.69 60.03 30.58 59.11 32.82"/><polygon class="cls-31" points="30.98 30.41 30.01 32.75 49.39 32.87 50.36 30.52 30.98 30.41"/><polygon class="cls-32" points="111.94 30.89 110.97 33.23 127.74 33.33 128.71 30.99 111.94 30.89"/><polygon class="cls-33" points="103.55 30.84 86.78 30.74 85.81 33.08 102.58 33.18 103.55 30.84"/><polygon class="cls-34" points="179.7 31.29 177.82 33.63 199.97 33.76 200.94 31.42 179.7 31.29"/><polygon class="cls-35" points="155.31 31.14 133.84 31.02 132.87 33.36 155.31 33.5 155.31 31.14"/><polygon class="cls-36" points="238.35 31.64 237.38 33.98 256.74 34.1 257.7 31.75 238.35 31.64"/><polygon class="cls-37" points="228.68 31.58 209.32 31.47 208.35 33.81 227.71 33.93 228.68 31.58"/><polygon class="cls-38" points="282.4 31.9 265.63 31.8 264.65 34.15 281.43 34.25 282.4 31.9"/><polygon class="cls-39" points="290.79 31.95 289.82 34.3 306.59 34.4 307.56 32.05 290.79 31.95"/><polygon class="cls-40" points="337.98 32.23 337 34.58 353.78 34.68 354.75 32.33 337.98 32.23"/><polygon class="cls-41" points="312.81 32.08 311.83 34.43 328.62 34.53 329.59 32.18 312.81 32.08"/><polygon class="cls-42" points="377.94 32.47 361.16 32.37 360.19 34.72 376.97 34.82 377.94 32.47"/><polygon class="cls-43" points="386.32 32.52 385.35 34.87 402.13 34.97 403.1 32.62 386.32 32.52"/><polygon class="cls-44" points="411.48 32.67 410.51 35.02 427.29 35.12 428.26 32.77 411.48 32.67"/><polygon class="cls-45" points="436.89 32.82 435.92 35.17 452.69 35.27 453.66 32.92 436.89 32.82"/><polygon class="cls-46" points="473.58 35.39 490.35 35.49 491.32 33.15 474.55 33.05 473.58 35.39"/></g></g></g></svg>