<svg width="33" height="32" viewBox="0 0 33 32" fill="none" xmlns="http://www.w3.org/2000/svg">
<path d="M29.3987 12.8006H27.6589C27.1141 5.65162 21.1359 0 13.8543 0C6.21469 0 0 6.2197 0 13.8643C0 17.8942 1.72993 21.529 4.4848 24.0688C4.46978 23.8688 4.4548 23.6788 4.44479 23.5089C4.39978 22.7039 4.41479 21.8439 4.48977 20.984C2.97987 19.0041 2.08489 16.5392 2.08489 13.8643C2.08489 7.36963 7.36463 2.08491 13.8543 2.08491C19.9855 2.08491 25.0342 6.80273 25.5735 12.8006H23.9295C23.5284 12.8006 23.2777 13.2348 23.4783 13.5822L26.2129 18.3179C26.4134 18.6652 26.9147 18.6652 27.1153 18.3179L29.8499 13.5822C30.0505 13.2348 29.7998 12.8006 29.3987 12.8006Z" fill="#525F7F"/>
<path d="M16.5642 14.8194C14.5643 14.3894 12.0544 14.3894 10.0545 14.8144V11.8495C10.0545 10.0546 11.5145 8.59467 13.3093 8.59467C15.1043 8.59467 16.5642 10.0546 16.5642 11.8495V14.8194ZM19.4791 16.1293C19.2291 15.8793 18.9041 15.6643 18.5191 15.4693V11.8495C18.5191 8.97465 16.1842 6.63477 13.3093 6.63477C10.4345 6.63477 8.09961 8.97465 8.09961 11.8495V15.4693C7.71462 15.6643 7.38465 15.8793 7.13966 16.1293C4.95477 18.3092 4.73976 26.5288 7.13966 28.4687C8.72958 29.7536 12.5794 30.1886 15.6942 29.7687V25.1289C15.6942 23.9789 16.5342 23.024 17.6341 22.849V20.8091C17.6341 20.0341 18.2641 19.4091 19.0341 19.4091C19.4091 19.4091 19.759 19.5541 20.019 19.8191L21.119 20.9191C20.919 18.8792 20.359 17.0093 19.4791 16.1293ZM14.6043 24.5089H12.0144L12.4844 22.084C11.9344 21.789 11.5544 21.2091 11.5544 20.5341C11.5544 19.5691 12.3394 18.7842 13.3093 18.7842C14.2793 18.7842 15.0643 19.5691 15.0643 20.5341C15.0643 21.2091 14.6893 21.789 14.1343 22.084L14.6043 24.5089Z" fill="#525F7F"/>
<path d="M31.1915 23.8213H22.6101L19.3143 20.5255C19.0638 20.275 18.6355 20.4524 18.6355 20.8066V23.8213H17.9992C17.2781 23.8213 16.6935 24.4059 16.6935 25.1271V30.6935C16.6935 31.4146 17.2781 31.9992 17.9992 31.9992H31.1915C31.9126 31.9992 32.4972 31.4146 32.4972 30.6935V25.1271C32.4972 24.4059 31.9126 23.8213 31.1915 23.8213ZM20.6913 28.9592L20.1473 29.3387L19.5605 28.5533L18.9645 29.3387L18.4212 28.9592L19.0081 28.1218L18.1106 27.8456L18.3088 27.2155L19.1894 27.5089V26.4818H19.9232V27.5089L20.7946 27.2155L21.0019 27.8456L20.0953 28.1218L20.6913 28.9592ZM24.0507 28.9592L23.5067 29.3387L22.9199 28.5533L22.3239 29.3387L21.7806 28.9592L22.3675 28.1218L21.47 27.8456L21.6682 27.2155L22.5488 27.5089V26.4818H23.2825V27.5089L24.154 27.2155L24.3613 27.8456L23.4547 28.1218L24.0507 28.9592ZM27.4101 28.9592L26.8661 29.3387L26.2793 28.5533L25.6833 29.3387L25.14 28.9592L25.7269 28.1218L24.8294 27.8456L25.0276 27.2155L25.9082 27.5089V26.4818H26.6419V27.5089L27.5134 27.2155L27.7207 27.8456L26.8141 28.1218L27.4101 28.9592ZM30.7695 28.9592L30.2255 29.3387L29.6387 28.5533L29.0427 29.3387L28.4994 28.9592L29.0863 28.1218L28.1888 27.8456L28.387 27.2155L29.2676 27.5089V26.4818H30.0013V27.5089L30.8728 27.2155L31.0801 27.8456L30.1735 28.1218L30.7695 28.9592Z" fill="url(#paint0_linear)"/>
<defs>
<linearGradient id="paint0_linear" x1="16.6935" y1="31.9992" x2="33.0355" y2="27.3663" gradientUnits="userSpaceOnUse">
<stop stop-color="#7000E9"/>
<stop offset="0.22631" stop-color="#FF00C5"/>
<stop offset="0.507577" stop-color="#FF0076"/>
<stop offset="1" stop-color="#005CE3"/>
</linearGradient>
</defs>
</svg>
