<svg width="38" height="36" viewBox="0 0 38 36" fill="none" xmlns="http://www.w3.org/2000/svg">
<path d="M8.07078 6.20064H8.69161C8.85626 6.20064 9.01417 6.13523 9.1306 6.0188C9.24703 5.90238 9.31244 5.74447 9.31244 5.57981C9.31244 5.41516 9.24703 5.25725 9.1306 5.14082C9.01417 5.02439 8.85626 4.95898 8.69161 4.95898H8.07078C7.90613 4.95898 7.74822 5.02439 7.63179 5.14082C7.51536 5.25725 7.44995 5.41516 7.44995 5.57981C7.44995 5.74447 7.51536 5.90238 7.63179 6.0188C7.74822 6.13523 7.90613 6.20064 8.07078 6.20064Z" fill="url(#paint0_linear)"/>
<path d="M36.008 28.6645V8.06274C36.0071 7.23977 35.6797 6.45078 35.0978 5.86885C34.5158 5.28692 33.7269 4.95957 32.9039 4.9586H22.1229C21.3894 3.20183 20.357 1.58552 19.0713 0.181453C18.9518 0.0651049 18.7916 0 18.6248 0C18.458 0 18.2978 0.0651049 18.1783 0.181453C16.8927 1.58552 15.8602 3.20183 15.1268 4.9586H11.1749C11.0103 4.9586 10.8523 5.02401 10.7359 5.14044C10.6195 5.25687 10.5541 5.41477 10.5541 5.57943C10.5541 5.74408 10.6195 5.90199 10.7359 6.01842C10.8523 6.13485 11.0103 6.20026 11.1749 6.20026H14.6994C14.5809 6.60827 14.4863 7.02286 14.4161 7.44191H4.3458C4.18114 7.44191 4.02323 7.50732 3.9068 7.62375C3.79038 7.74018 3.72497 7.89809 3.72497 8.06274V26.6876C3.72497 26.8522 3.79038 27.0101 3.9068 27.1266C4.02323 27.243 4.18114 27.3084 4.3458 27.3084H32.9039C33.0685 27.3084 33.2264 27.243 33.3429 27.1266C33.4593 27.0101 33.5247 26.8522 33.5247 26.6876V8.06274C33.5247 7.89809 33.4593 7.74018 33.3429 7.62375C33.2264 7.50732 33.0685 7.44191 32.9039 7.44191H22.8336C22.7634 7.02286 22.6688 6.60827 22.5503 6.20026H32.9039C33.3977 6.2008 33.8711 6.3972 34.2203 6.74636C34.5694 7.09553 34.7658 7.56895 34.7664 8.06274V28.5501H22.9706C22.806 28.5501 22.6481 28.6155 22.5316 28.7319C22.4152 28.8483 22.3498 29.0062 22.3498 29.1709V30.4125H14.8999V29.1709C14.8999 29.0062 14.8345 28.8483 14.718 28.7319C14.6016 28.6155 14.4437 28.5501 14.279 28.5501H2.48331V8.06274C2.48385 7.56895 2.68025 7.09553 3.02942 6.74636C3.37859 6.3972 3.852 6.2008 4.3458 6.20026H6.20828C6.37293 6.20026 6.53084 6.13485 6.64727 6.01842C6.7637 5.90199 6.82911 5.74408 6.82911 5.57943C6.82911 5.41477 6.7637 5.25687 6.64727 5.14044C6.53084 5.02401 6.37293 4.9586 6.20828 4.9586H4.3458C3.52282 4.95957 2.73384 5.28692 2.15191 5.86885C1.56998 6.45078 1.24263 7.23977 1.24166 8.06274V28.6645C0.879549 28.792 0.565799 29.0285 0.343481 29.3415C0.121163 29.6545 0.00117857 30.0286 0 30.4125V31.6542C0.00128172 32.8064 0.459553 33.911 1.27427 34.7257C2.08899 35.5404 3.19361 35.9987 4.3458 36H32.9039C34.0561 35.9987 35.1607 35.5404 35.9754 34.7257C36.7901 33.911 37.2484 32.8064 37.2497 31.6542V30.4125C37.2485 30.0286 37.1285 29.6545 36.9062 29.3415C36.6839 29.0285 36.3701 28.792 36.008 28.6645ZM15.4736 17.3752H11.8573C12.0006 16.6809 12.377 16.0564 12.9239 15.6054C13.4709 15.1544 14.1555 14.9038 14.8644 14.8953C15.0129 15.7344 15.2164 16.5628 15.4736 17.3752ZM16.5761 16.7543H20.6736C20.5542 17.1838 20.391 17.5998 20.1867 17.996H17.0631C16.8587 17.5998 16.6955 17.1838 16.5761 16.7543ZM22.3851 14.895C23.094 14.9035 23.7786 15.1542 24.3254 15.6053C24.8722 16.0564 25.2484 16.6809 25.3915 17.3752H21.7761C22.0333 16.5627 22.2367 15.7342 22.3851 14.895ZM18.6248 1.5577C19.5791 2.71934 21.729 5.70192 21.729 8.99882C21.6986 11.1891 21.4518 13.371 20.9921 15.5127H16.2576C15.7979 13.371 15.5511 11.1891 15.5207 8.99882C15.5207 5.70192 17.6706 2.71934 18.6248 1.5577ZM32.2831 8.68357V26.0668H4.96662V8.68357H14.2942C14.2905 8.78911 14.279 8.89254 14.279 8.99882C14.3017 10.5599 14.4289 12.1178 14.6598 13.6619C13.551 13.7222 12.5074 14.2051 11.7438 15.0112C10.9801 15.8174 10.5543 16.8855 10.5541 17.996C10.5541 18.1606 10.6195 18.3186 10.7359 18.435C10.8523 18.5514 11.0103 18.6168 11.1749 18.6168H15.9907C16.0628 18.7481 16.1441 18.8741 16.234 18.9939C16.2919 19.0697 16.3666 19.1311 16.4521 19.1734C16.5377 19.2157 16.6318 19.2377 16.7272 19.2376H20.5225C20.6179 19.2377 20.712 19.2157 20.7976 19.1734C20.8831 19.1311 20.9578 19.0697 21.0157 18.9939C21.1056 18.8741 21.1869 18.7481 21.259 18.6168H26.0748C26.2394 18.6168 26.3973 18.5514 26.5138 18.435C26.6302 18.3186 26.6956 18.1606 26.6956 17.996C26.6937 16.8861 26.2674 15.8189 25.504 15.0132C24.7407 14.2075 23.698 13.7243 22.5898 13.6626C22.8207 12.1183 22.948 10.5602 22.9706 8.99882C22.9706 8.89254 22.9592 8.78905 22.9555 8.68357H32.2831ZM36.008 31.6542C36.0071 32.4772 35.6797 33.2662 35.0978 33.8481C34.5158 34.43 33.7269 34.7574 32.9039 34.7583H4.3458C3.52282 34.7574 2.73384 34.43 2.15191 33.8481C1.56998 33.2662 1.24263 32.4772 1.24166 31.6542V30.4125C1.24187 30.248 1.30735 30.0902 1.42373 29.9738C1.54011 29.8574 1.6979 29.7919 1.86248 29.7917H13.6582V31.0334C13.6582 31.198 13.7236 31.3559 13.8401 31.4724C13.9565 31.5888 14.1144 31.6542 14.279 31.6542H22.9706C23.1353 31.6542 23.2932 31.5888 23.4096 31.4724C23.5261 31.3559 23.5915 31.198 23.5915 31.0334V29.7917H35.3872C35.5518 29.7919 35.7096 29.8574 35.826 29.9738C35.9423 30.0902 36.0078 30.248 36.008 30.4125V31.6542Z" fill="#525F7F"/>
<path d="M18.6248 19.5469C18.0989 19.5824 17.6083 19.824 17.2595 20.2193C16.9108 20.6145 16.7321 21.1314 16.7623 21.6577C16.7623 22.6071 17.8724 24.473 18.0949 24.8373C18.1504 24.9281 18.2282 25.0032 18.321 25.0552C18.4138 25.1073 18.5184 25.1346 18.6248 25.1346C18.7312 25.1346 18.8358 25.1073 18.9286 25.0552C19.0214 25.0032 19.0992 24.9281 19.1547 24.8373C19.3772 24.4729 20.4873 22.6071 20.4873 21.6577C20.5175 21.1314 20.3389 20.6145 19.9901 20.2193C19.6414 19.824 19.1507 19.5824 18.6248 19.5469ZM18.6248 23.247C18.3323 22.7548 18.1225 22.2179 18.004 21.6577C18.004 21.1866 18.2883 20.7885 18.6248 20.7885C18.9613 20.7885 19.2456 21.1865 19.2456 21.6577C19.1271 22.2179 18.9174 22.7548 18.6248 23.247Z" fill="url(#paint1_linear)"/>
<defs>
<linearGradient id="paint0_linear" x1="7.44995" y1="6.20064" x2="9.34619" y2="5.60921" gradientUnits="userSpaceOnUse">
<stop stop-color="#7000E9"/>
<stop offset="0.22631" stop-color="#FF00C5"/>
<stop offset="0.507577" stop-color="#FF0076"/>
<stop offset="1" stop-color="#005CE3"/>
</linearGradient>
<linearGradient id="paint1_linear" x1="16.759" y1="25.1346" x2="20.8489" y2="24.5667" gradientUnits="userSpaceOnUse">
<stop stop-color="#7000E9"/>
<stop offset="0.22631" stop-color="#FF00C5"/>
<stop offset="0.507577" stop-color="#FF0076"/>
<stop offset="1" stop-color="#005CE3"/>
</linearGradient>
</defs>
</svg>
