<svg width="38" height="36" viewBox="0 0 38 36" fill="none" xmlns="http://www.w3.org/2000/svg">
<path d="M0 15.5143C0 14.0058 0.995949 12.2473 3.80877 12.2473L12.639 12.2973C12.9673 12.316 13.276 12.4595 13.5018 12.6986C13.7276 12.9376 13.8534 13.254 13.8534 13.5828C13.8534 13.9117 13.7276 14.228 13.5018 14.4671C13.276 14.7061 12.9673 14.8497 12.639 14.8684L3.80044 14.8225C2.57113 14.8225 2.57113 15.3268 2.57113 15.5185C2.57113 15.8268 2.69615 16.5394 3.82128 16.5394L25.8363 16.6978L21.2316 12.0847C21.0093 11.8396 20.8898 11.5183 20.898 11.1875C20.9063 10.8567 21.0415 10.5417 21.2758 10.308C21.5101 10.0742 21.8254 9.93967 22.1562 9.9322C22.4871 9.92473 22.8081 10.0449 23.0527 10.2679L28.3033 15.5185C28.6324 15.8464 28.8935 16.236 29.0717 16.6651C29.2499 17.0942 29.3416 17.5542 29.3416 18.0188C29.3416 18.4833 29.2499 18.9433 29.0717 19.3724C28.8935 19.8015 28.6324 20.1911 28.3033 20.519L23.0527 25.7696C22.8081 25.9926 22.4871 26.1128 22.1562 26.1053C21.8254 26.0978 21.5101 25.9633 21.2758 25.7295C21.0415 25.4958 20.9063 25.1808 20.898 24.85C20.8898 24.5192 21.0093 24.1979 21.2316 23.9528L25.8822 19.2731L3.82961 19.1105C1.31682 19.1105 0 17.302 0 15.5143ZM10.6596 7.18C11.0011 7.18 11.3286 7.04434 11.5701 6.80285C11.8116 6.56137 11.9472 6.23385 11.9472 5.89235C11.9472 5.00819 12.2984 4.16025 12.9236 3.53505C13.5488 2.90986 14.3968 2.55863 15.2809 2.55863H31.5912C32.4753 2.55863 33.3233 2.90986 33.9485 3.53505C34.5737 4.16025 34.9249 5.00819 34.9249 5.89235V30.0618C34.9249 30.946 34.5737 31.7939 33.9485 32.4191C33.3233 33.0443 32.4753 33.3955 31.5912 33.3955H15.2893C14.4051 33.3955 13.5572 33.0443 12.932 32.4191C12.3068 31.7939 11.9556 30.946 11.9556 30.0618C11.9655 29.8868 11.9397 29.7117 11.8796 29.547C11.8195 29.3824 11.7264 29.2318 11.606 29.1044C11.4857 28.9769 11.3406 28.8755 11.1796 28.8061C11.0187 28.7367 10.8452 28.7009 10.67 28.7009C10.4947 28.7009 10.3213 28.7367 10.1604 28.8061C9.9994 28.8755 9.8543 28.9769 9.73395 29.1044C9.6136 29.2318 9.52052 29.3824 9.46041 29.547C9.40031 29.7117 9.37445 29.8868 9.38442 30.0618C9.38223 30.8394 9.53322 31.6099 9.82878 32.3292C10.1243 33.0484 10.5587 33.7024 11.107 34.2538C11.6553 34.8053 12.3069 35.2433 13.0245 35.5429C13.7421 35.8425 14.5116 35.9978 15.2893 36H31.5912C33.1588 35.9978 34.6615 35.3741 35.77 34.2656C36.8784 33.1572 37.5021 31.6544 37.5043 30.0868V5.91735C37.5032 4.34903 36.88 2.8452 35.7714 1.73584C34.6629 0.626482 33.1595 0.00220696 31.5912 0L15.2893 0C13.7217 0.00220478 12.2189 0.625907 11.1105 1.73437C10.002 2.84283 9.37829 4.34559 9.37609 5.91318C9.37608 6.25397 9.51117 6.58086 9.75175 6.82222C9.99234 7.06358 10.3188 7.19973 10.6596 7.20083V7.18Z" fill="#525F7F"/>
</svg>
