<svg width="31" height="36" viewBox="0 0 31 36" fill="none" xmlns="http://www.w3.org/2000/svg">
<path fill-rule="evenodd" clip-rule="evenodd" d="M0 0C0 11.2319 0 22.4638 0 33.6958H16.7403C16.5528 33.432 16.3767 33.1601 16.2219 32.8739H0.821848V0.821848H24.6554V21.2838C24.9346 21.3348 25.2091 21.3985 25.4773 21.478V0H0Z" fill="#525F7F"/>
<path fill-rule="evenodd" clip-rule="evenodd" d="M6.23047 19.6465C6.23047 19.9202 6.23047 20.1938 6.23047 20.4676H19.2476V19.6465H6.23047Z" fill="black"/>
<path fill-rule="evenodd" clip-rule="evenodd" d="M6.23047 22.8574C6.23047 23.1311 6.23047 23.4048 6.23047 23.6784H17.4209C17.6974 23.3829 17.9943 23.1082 18.3126 22.8574H6.23047Z" fill="black"/>
<path d="M10.2625 12.0527V12.1418V14.6186H15.2152V12.0527H14.395V13.7976H11.0827V12.0527H10.2625Z" fill="black"/>
<path d="M12.7385 9.44922C11.9456 9.44922 11.2954 10.0994 11.2954 10.8923C11.2954 11.6851 11.9456 12.3353 12.7385 12.3353C13.5313 12.3353 14.1823 11.6851 14.1823 10.8923C14.1823 10.0994 13.5313 9.44922 12.7385 9.44922ZM12.7385 10.2695C13.0883 10.2695 13.3613 10.5425 13.3613 10.8923C13.3613 11.2421 13.0884 11.5151 12.7385 11.5151C12.3886 11.5151 12.1157 11.2421 12.1157 10.8923C12.1157 10.5425 12.3887 10.2695 12.7385 10.2695Z" fill="black"/>
<path d="M12.7385 6.80859C9.85755 6.80859 7.51367 9.15247 7.51367 12.0334C7.51367 14.9144 9.85755 17.2583 12.7385 17.2583C15.6195 17.2583 17.9641 14.9144 17.9641 12.0334C17.9641 9.15247 15.6195 6.80859 12.7385 6.80859ZM12.7385 7.62884C15.1759 7.62884 17.1431 9.596 17.1431 12.0334C17.1431 14.4709 15.1759 16.438 12.7385 16.438C10.3011 16.438 8.33472 14.4709 8.33472 12.0334C8.33472 9.596 10.3011 7.62884 12.7385 7.62884Z" fill="black"/>
<path fill-rule="evenodd" clip-rule="evenodd" d="M6.23047 26.0664C6.23047 26.3401 6.23047 26.6138 6.23047 26.8875H15.5886C15.67 26.6075 15.7631 26.3328 15.8735 26.0664H6.23047Z" fill="black"/>
<path d="M23.2224 22.2051C22.3165 22.2051 21.4196 22.3836 20.5827 22.7302C19.7458 23.0769 18.9854 23.5851 18.3449 24.2256C17.7045 24.8662 17.1964 25.6267 16.8498 26.4636C16.5032 27.3005 16.3249 28.1975 16.325 29.1033C16.325 30.9326 17.0517 32.6869 18.3452 33.9804C19.6387 35.2739 21.3931 36.0006 23.2224 36.0007C24.1282 36.0008 25.0252 35.8225 25.8621 35.4759C26.699 35.1293 27.4595 34.6212 28.1 33.9807C28.7406 33.3403 29.2487 32.5799 29.5954 31.743C29.9421 30.9061 30.1206 30.0092 30.1206 29.1033C30.1207 28.1974 29.9423 27.3003 29.5957 26.4634C29.249 25.6264 28.7409 24.8659 28.1003 24.2254C27.4598 23.5848 26.6993 23.0767 25.8623 22.73C25.0253 22.3834 24.1283 22.205 23.2224 22.2051ZM21.3339 26.6329L23.2224 28.5215L25.1109 26.6329L25.6919 27.214L23.8035 29.1025L25.6919 30.9918L25.1109 31.5728L23.2224 29.6844L21.3339 31.5728L20.7528 30.9918L22.6413 29.1025L20.7528 27.214L21.3339 26.6329Z" fill="url(#paint0_linear)"/>
<defs>
<linearGradient id="paint0_linear" x1="16.325" y1="36.0007" x2="31.0983" y2="32.9289" gradientUnits="userSpaceOnUse">
<stop stop-color="#7000E9"/>
<stop offset="0.22631" stop-color="#FF00C5"/>
<stop offset="0.507577" stop-color="#FF0076"/>
<stop offset="1" stop-color="#005CE3"/>
</linearGradient>
</defs>
</svg>
