<svg width="34" height="36" viewBox="0 0 34 36" fill="none" xmlns="http://www.w3.org/2000/svg">
<path d="M1.16055 24.2485C2.44053 24.0129 5.76807 23.6106 9.7768 23.3447C14.2436 23.0484 19.5659 22.92 23.8676 23.3766C28.2597 23.8428 31.6089 24.937 31.9994 27.1125C32.0158 27.204 32.027 27.2948 32.0328 27.3848C32.1271 28.8526 31.0648 29.6729 29.3906 30.0778C29.3813 30.0806 29.372 30.0828 29.3627 30.0844C28.7661 30.2265 28.0929 30.3165 27.3672 30.3647C23.7271 30.6061 18.729 29.8035 15.7119 29.3132C15.4241 29.5703 15.2674 29.8559 15.2215 30.1113C15.2027 30.2156 15.2028 30.3134 15.2201 30.4001C15.2358 30.4784 15.2659 30.5473 15.3092 30.6027C15.3551 30.6614 15.4177 30.7062 15.4954 30.7318C15.5188 30.7377 15.5423 30.7435 15.5659 30.7492C15.5689 30.7499 15.5718 30.7506 15.5748 30.7514C15.6289 30.7645 15.6836 30.7773 15.7389 30.7897C16.9053 31.0519 18.2917 31.1447 19.2782 31.1972C19.4798 31.208 19.9994 31.2697 20.4523 31.5055C20.6803 31.6242 20.8927 31.7863 21.046 32.0072C21.2039 32.2348 21.2972 32.5185 21.2789 32.8717C21.2641 33.1601 21.1731 33.4949 20.978 33.8832C20.9737 33.8921 20.9693 33.9009 20.9647 33.9098C20.8485 34.1352 20.6319 34.3681 20.3417 34.5918C19.3453 35.3599 17.3838 36.0893 15.6991 35.9911C15.586 35.9894 15.485 35.9087 15.4605 35.7915C15.4322 35.6556 15.5177 35.5219 15.6515 35.4931C16.3813 35.3341 17.0254 35.1358 17.5866 34.8151C18.1387 34.4996 18.6158 34.0617 19.0241 33.4186C19.098 33.3016 19.2512 33.2677 19.3663 33.3428C19.4815 33.4178 19.5149 33.5735 19.441 33.6904C19.0036 34.3794 18.4938 34.8587 17.9059 35.2094C18.7617 34.9612 19.5371 34.582 20.0431 34.1919C20.2763 34.0121 20.4447 33.8359 20.5265 33.6774C20.5792 33.5751 20.5877 33.487 20.5401 33.4228C20.422 33.2636 20.0842 33.1427 19.4591 33.0913C19.2827 33.0769 19.0604 33.0656 18.7921 33.052C17.9373 33.0086 16.6367 32.9427 15.4356 32.7364C13.6612 32.4316 12.1013 31.8117 12.321 30.4912C12.4077 29.9702 12.6771 29.3844 13.1535 29.0071C13.2834 28.9043 13.428 28.817 13.5875 28.7505C13.6696 28.7108 13.7655 28.6784 13.8777 28.6559C13.8836 28.6548 13.8966 28.6525 13.9172 28.6491C14.0675 28.618 14.2286 28.6042 14.4006 28.6107C16.1467 28.6185 20.1726 28.4562 23.6449 28.2377C26.4646 28.0604 28.9051 27.8485 29.4231 27.6656C29.5283 27.6284 29.6024 27.5806 29.6471 27.5273C29.6775 27.4911 29.6927 27.4528 29.693 27.4155C29.6935 27.3709 29.6758 27.3211 29.6407 27.2703C29.5846 27.1889 29.4887 27.1105 29.3541 27.0453C29.1221 26.9628 28.8693 26.8944 28.6004 26.8436C24.6545 26.0981 20.7778 25.9222 16.5471 26.1808C12.3064 26.44 7.71196 27.1351 2.33911 28.1305C2.29405 28.1387 2.24966 28.1339 2.20964 28.1188L2.20443 28.1168L2.19936 28.1147L2.19732 28.1138L2.19396 28.1123L2.19162 28.1112L2.18891 28.1099L2.18585 28.1084L2.18358 28.1072L2.18067 28.1057L2.17806 28.1043L2.17546 28.1028L2.17238 28.101L2.1705 28.0999L2.16659 28.0976L2.16103 28.094C2.10596 28.0575 2.06466 27.9985 2.05214 27.9276C2.04406 27.8818 2.04876 27.8367 2.06361 27.796L2.06561 27.7907L2.06769 27.7856L2.06857 27.7835L2.07006 27.7801L2.07112 27.7777L2.0724 27.775L2.07389 27.7719L2.07503 27.7696L2.07653 27.7666L2.07793 27.764L2.07935 27.7613L2.0811 27.7582L2.08219 27.7563L2.08453 27.7523L2.08804 27.7467C2.0959 27.7344 2.10519 27.7222 2.11505 27.7115L3.6433 25.9805L1.08293 24.7247C0.959779 24.6644 0.908131 24.514 0.96756 24.3889C1.00556 24.3089 1.07977 24.2586 1.16055 24.2485ZM15.1173 29.2166C14.9276 29.1859 14.7545 29.1581 14.6065 29.1348C14.5288 29.1226 14.4539 29.1154 14.3816 29.1129C14.3496 29.1128 14.3183 29.1125 14.2878 29.1123C14.1069 29.1161 13.9442 29.15 13.7989 29.2068C13.7205 29.2458 13.6757 29.2946 13.6514 29.3432C13.614 29.4177 13.6173 29.4941 13.6232 29.5314C13.6247 29.5409 13.6225 29.525 13.6247 29.5365C13.7051 29.9515 14.1323 30.2614 14.7343 30.4949C14.7057 30.3482 14.705 30.1882 14.7348 30.0227C14.7819 29.7601 14.9062 29.4802 15.1173 29.2166ZM15.461 31.2401C15.4243 31.233 15.3887 31.2241 15.3544 31.2135C14.249 30.9297 13.3611 30.4716 13.1582 29.7201C12.9715 29.9799 12.8572 30.2883 12.8097 30.574C12.6553 31.5013 13.9988 31.9792 15.517 32.2399C16.6937 32.4421 17.9739 32.507 18.8153 32.5497C19.1059 32.5644 19.3465 32.5766 19.4979 32.589C20.1145 32.6397 20.528 32.7722 20.7737 32.9586C20.779 32.9199 20.7826 32.8824 20.7845 32.8461C20.7963 32.6176 20.7387 32.4379 20.6407 32.2968C20.5381 32.1489 20.3895 32.037 20.2274 31.9526C19.8565 31.7596 19.4221 31.7085 19.253 31.6996C18.25 31.6461 16.8385 31.5513 15.6322 31.2802C15.5747 31.2673 15.5176 31.2539 15.461 31.2401ZM17.9185 8.60537C17.8696 8.53431 17.8867 8.43647 17.9566 8.38683C18.0266 8.3372 18.1229 8.35456 18.1717 8.42561L19.7537 10.7215C19.8025 10.7926 19.7854 10.8904 19.7155 10.94C19.6456 10.9897 19.5492 10.9723 19.5004 10.9013L17.9185 8.60537ZM17.4665 10.6717C17.4176 10.6006 17.4347 10.5028 17.5047 10.4531C17.5746 10.4035 17.6709 10.4209 17.7198 10.4919L19.3017 12.7878C19.3506 12.8589 19.3335 12.9567 19.2635 13.0063C19.1936 13.056 19.0973 13.0386 19.0484 12.9676L17.4665 10.6717ZM13.5253 1.36801C13.9401 0.827191 14.4493 0.426012 14.9751 0.203104C15.6087 -0.0655486 16.2686 -0.0781244 16.8286 0.228117C17.2255 0.445206 17.5181 0.707095 17.7214 1.00212C18.1458 1.6183 18.1698 2.35494 17.9335 3.11752C17.7088 3.84286 17.2457 4.59325 16.6734 5.27865C15.7652 6.36643 14.5714 7.30178 13.6222 7.71192C13.5577 7.7398 13.4881 7.73774 13.4283 7.7119L13.427 7.71135C12.4781 7.30093 11.285 6.36593 10.3772 5.27865C9.80491 4.59325 9.34177 3.84286 9.11702 3.11752C8.88073 2.35494 8.90474 1.61829 9.3292 1.00211C9.53242 0.707095 9.82502 0.445206 10.222 0.228117C10.782 -0.0781244 11.4418 -0.0655486 12.0755 0.203104C12.6013 0.426012 13.1104 0.827191 13.5253 1.36801ZM15.1651 0.667994C14.6376 0.891626 14.1251 1.33179 13.7349 1.93511C13.7165 1.96471 13.6917 1.99086 13.661 2.01127C13.5464 2.08742 13.3928 2.05479 13.3178 1.93838C12.9273 1.33338 12.4139 0.89203 11.8855 0.667994C11.3868 0.456559 10.8773 0.441273 10.4566 0.671335C10.1297 0.85013 9.89336 1.05902 9.73444 1.28972C9.40948 1.76146 9.39814 2.34817 9.59013 2.96781C9.79367 3.62468 10.2224 4.31545 10.7553 4.95363C11.5848 5.94723 12.6565 6.80257 13.5253 7.20549C14.394 6.80257 15.4657 5.94723 16.2953 4.95363C16.8281 4.31545 17.2569 3.62468 17.4604 2.96781C17.6524 2.34817 17.6411 1.76147 17.3161 1.28972C17.1572 1.05902 16.9209 0.85013 16.594 0.671335C16.1733 0.441273 15.6638 0.456559 15.1651 0.667994ZM7.03016 13.519C6.82466 13.6052 6.68147 13.8022 6.61609 14.051C6.5445 14.3234 6.56557 14.6528 6.69625 14.9746C6.82691 15.2962 7.04031 15.5448 7.27959 15.6864C7.49882 15.8161 7.73751 15.8532 7.94365 15.7668C8.14914 15.6806 8.29244 15.4836 8.35781 15.2348C8.42941 14.9624 8.40834 14.633 8.27765 14.3112C8.14702 13.9895 7.93363 13.741 7.69432 13.5994C7.47508 13.4697 7.23629 13.4327 7.03016 13.519ZM6.13716 13.9209C6.23924 13.5325 6.47463 13.2173 6.82004 13.0637C6.83396 13.0562 6.84867 13.05 6.86401 13.0453C7.2151 12.9068 7.60054 12.9617 7.94251 13.164C8.2661 13.3555 8.55223 13.6819 8.72665 14.0992C8.73342 14.1124 8.73909 14.1263 8.7435 14.1407C8.90953 14.5616 8.93324 14.9977 8.83675 15.3649C8.73466 15.7533 8.49928 16.0685 8.15386 16.2221C8.13994 16.2296 8.12523 16.2358 8.10989 16.2405C7.7588 16.379 7.37336 16.3241 7.0314 16.1218C6.70781 15.9303 6.42167 15.6039 6.24725 15.1866C6.24048 15.1734 6.23481 15.1595 6.23039 15.145C6.06438 14.7242 6.04067 14.2881 6.13716 13.9209ZM6.86047 12.0092L6.02326 12.5196C5.906 12.5908 5.75407 12.552 5.68393 12.4329C5.6812 12.4283 5.67866 12.4236 5.67626 12.4188L0.141169 2.65831C0.0544146 2.50533 0.0075254 2.34215 0.000836694 2.17635C-0.00585822 2.01041 0.0276163 1.84399 0.101558 1.68471C0.17573 1.52496 0.280968 1.39262 0.411342 1.29228C0.541319 1.19223 0.69511 1.12526 0.86677 1.09591L2.74488 0.774941C3.00199 0.731005 3.25418 0.78676 3.46154 0.917137C3.66878 1.04743 3.83043 1.25221 3.90667 1.5064L6.97002 11.7207C7.00365 11.8333 6.95565 11.9515 6.86047 12.0092ZM5.98466 11.9569L6.44067 11.6789L3.43356 1.65217C3.39369 1.51924 3.3095 1.41236 3.20171 1.3446C3.09407 1.27691 2.96202 1.24816 2.82633 1.27135L0.948214 1.59232C0.857383 1.60785 0.776944 1.64257 0.709952 1.69413C0.643356 1.74538 0.588847 1.8146 0.549466 1.89943C0.509867 1.98473 0.491855 2.07177 0.49528 2.15665C0.498711 2.2417 0.523567 2.32682 0.569681 2.40814L5.98466 11.9569ZM14.1153 13.8516L15.3766 15.6402L17.5211 15.3332C17.6565 15.3142 17.7815 15.4103 17.8003 15.5479C17.8095 15.6153 17.7914 15.6802 17.7547 15.7311L16.4702 17.5025L17.4204 19.4799C17.4804 19.605 17.4292 19.7558 17.306 19.8167C17.2385 19.8501 17.1634 19.8496 17.0994 19.8216L15.0646 19.1348L13.5066 20.6644C13.4081 20.7607 13.2514 20.7576 13.1566 20.6575C13.1071 20.6052 13.0843 20.5367 13.0879 20.4695L13.1021 18.2823L11.1892 17.2498C11.0682 17.1846 11.0222 17.032 11.0864 16.9091C11.1218 16.8414 11.1831 16.7969 11.2513 16.7813L13.294 16.1222L13.6693 13.955C13.6929 13.818 13.8214 13.7263 13.9563 13.7502C14.023 13.762 14.0787 13.7999 14.1153 13.8516ZM15.0605 16.0573L14.0556 14.6324L13.7567 16.3585C13.7412 16.4477 13.6779 16.5252 13.587 16.5545L11.9419 17.0853L13.4667 17.9083C13.5451 17.9507 13.5979 18.0354 13.5976 18.1319L13.5861 19.887L14.8285 18.6673C14.8924 18.6049 14.9876 18.5799 15.0776 18.6101L16.7163 19.1633L15.9587 17.5866C15.9198 17.5054 15.9258 17.4054 15.982 17.3276L17.0063 15.915L15.3121 16.1575C15.2191 16.1768 15.1194 16.1408 15.0605 16.0573ZM24.3606 4.30249L24.4855 6.53031L26.3705 7.67604C26.4878 7.74729 26.526 7.90164 26.4558 8.02077C26.412 8.09517 26.3363 8.13823 26.2571 8.14273L24.0642 8.26985L22.9364 10.1849C22.8663 10.304 22.7144 10.3428 22.5971 10.2715C22.5239 10.227 22.4815 10.1501 22.4771 10.0696L22.3519 7.8418L20.467 6.69608C20.3497 6.62482 20.3115 6.47047 20.3816 6.35135C20.4255 6.27695 20.5012 6.23388 20.5804 6.22939L22.7733 6.10226L23.901 4.18726C23.9712 4.06813 24.1231 4.02933 24.2404 4.10058C24.3136 4.14509 24.3562 4.222 24.3606 4.30249ZM23.9986 6.69129L23.912 5.14777L23.1356 6.4661C23.0959 6.54003 23.0206 6.59203 22.9317 6.59698L21.4124 6.68494L22.7101 7.47368C22.7828 7.51403 22.834 7.59055 22.8389 7.68083L22.9255 9.22435L23.7019 7.90602C23.7416 7.83208 23.8169 7.78009 23.9058 7.77513L25.4251 7.68717L24.1274 6.89843C24.0546 6.85809 24.0035 6.78157 23.9986 6.69129ZM26.8598 17.6391C27.2053 17.7927 27.4406 18.1079 27.5427 18.4963C27.6392 18.8634 27.6155 19.2996 27.4495 19.7204C27.4451 19.7349 27.4394 19.7487 27.4326 19.7619C27.2582 20.1793 26.9721 20.5057 26.6485 20.6971C26.3065 20.8995 25.9211 20.9544 25.57 20.8159C25.5547 20.8112 25.5399 20.805 25.526 20.7974C25.1806 20.6438 24.9452 20.3287 24.8431 19.9402C24.7467 19.5731 24.7704 19.137 24.9364 18.7161C24.9408 18.7017 24.9465 18.6878 24.9532 18.6746C25.1277 18.2572 25.4138 17.9309 25.7374 17.7394C26.0793 17.5371 26.4648 17.4822 26.8159 17.6206C26.8312 17.6254 26.8459 17.6316 26.8598 17.6391ZM27.0638 18.6263C26.9984 18.3775 26.8552 18.1806 26.6497 18.0944C26.4436 18.008 26.2048 18.045 25.9856 18.1747C25.7463 18.3163 25.5329 18.5648 25.4023 18.8865C25.2716 19.2083 25.2505 19.5378 25.3221 19.8102C25.3875 20.059 25.5306 20.256 25.7361 20.3421C25.9423 20.4285 26.1811 20.3915 26.4003 20.2618C26.6396 20.1202 26.8529 19.8718 26.9835 19.5502C27.1142 19.2284 27.1354 18.8987 27.0638 18.6263ZM27.2392 16.2543L27.7017 16.5362L33.3936 7.22933C33.4416 7.15091 33.469 7.06827 33.4757 6.98495C33.4824 6.90076 33.4684 6.81416 33.4334 6.72875C33.3983 6.6431 33.3479 6.57211 33.2849 6.51805C33.2221 6.46412 33.1449 6.42562 33.0561 6.40487L30.8726 5.89451C30.7336 5.86203 30.5948 5.88658 30.4804 5.95376C30.3656 6.02124 30.2752 6.13114 30.2339 6.26899L27.2392 16.2543ZM27.6566 17.095L26.8194 16.5846C26.7242 16.5269 26.6762 16.4087 26.7099 16.296L29.7608 6.12322C29.8403 5.85799 30.0131 5.64721 30.2322 5.51842C30.4519 5.38934 30.7178 5.34201 30.9831 5.40401L33.1666 5.91438C33.3337 5.95343 33.4815 6.02811 33.6049 6.13392C33.7281 6.23964 33.8252 6.37506 33.891 6.5357C33.9569 6.69655 33.9831 6.86173 33.9701 7.02435C33.9571 7.18784 33.905 7.34711 33.8144 7.49526L27.994 17.0122C27.9229 17.1284 27.7727 17.1655 27.6566 17.095ZM17.2674 29.0535C20.2505 29.5204 24.2883 30.0645 27.3362 29.8624C28.0354 29.816 28.6807 29.7308 29.2452 29.5966L29.2474 29.5959C29.9988 29.3585 30.4541 29.0705 30.6727 28.7699C30.7947 28.6021 30.8367 28.4315 30.8113 28.2669C30.784 28.09 30.6806 27.9096 30.5155 27.737C30.4228 27.6402 30.3122 27.5472 30.1859 27.4597C30.1762 27.6013 30.1225 27.7363 30.0233 27.8544C29.9237 27.9727 29.7782 28.0725 29.586 28.1403C29.0204 28.34 26.5314 28.5603 23.674 28.7401C21.5311 28.8749 19.1732 28.9883 17.2674 29.0535ZM29.5216 26.5732C29.5294 26.5756 29.5371 26.5784 29.5448 26.5816C30.1053 26.7855 30.5646 27.067 30.8703 27.3864C31.1061 27.6328 31.2561 27.9057 31.2999 28.1901C31.3108 28.2608 31.3152 28.3315 31.3127 28.4022C31.4822 28.1222 31.5627 27.7956 31.5383 27.4164C31.5335 27.3408 31.5249 27.2691 31.5127 27.2011C31.1719 25.3024 27.9959 24.3205 23.8172 23.877C19.5483 23.4238 14.2543 23.5521 9.80783 23.847C6.45414 24.0695 3.58855 24.386 2.00737 24.6195L4.15471 25.6727C4.27786 25.733 4.32951 25.8834 4.27008 26.0085C4.25738 26.0353 4.2406 26.0587 4.2209 26.0784L2.96089 27.5056C8.05229 26.576 12.4471 25.9273 16.518 25.6785C20.7867 25.4176 24.7011 25.5956 28.6896 26.3491C28.9847 26.4049 29.2636 26.4809 29.5216 26.5732Z" fill="url(#paint0_linear)"/>
<defs>
<linearGradient id="paint0_linear" x1="-1.14423e-06" y1="36" x2="36.5467" y2="28.8287" gradientUnits="userSpaceOnUse">
<stop stop-color="#7000E9"/>
<stop offset="0.22631" stop-color="#FF00C5"/>
<stop offset="0.507577" stop-color="#FF0076"/>
<stop offset="1" stop-color="#005CE3"/>
</linearGradient>
</defs>
</svg>
