<svg width="36" height="36" viewBox="0 0 36 36" fill="none" xmlns="http://www.w3.org/2000/svg">
<path d="M22.753 10.5815C22.9285 10.3322 23.1923 10.159 23.4908 10.0971C23.7893 10.0352 24.1001 10.0891 24.3603 10.248C24.6205 10.4068 24.8105 10.6587 24.8918 10.9526C24.9731 11.2464 24.9396 11.5601 24.798 11.8301L21.5404 17.2049L32.1819 29.0911C34.7809 25.7616 36.127 21.6246 35.9848 17.4033C35.8426 13.1819 34.2213 9.14482 31.4042 5.99776C28.5871 2.8507 24.7535 0.793905 20.5736 0.186952C16.3937 -0.420001 12.1334 0.461503 8.5376 2.67736L19.8635 15.3279L22.753 10.5815Z" fill="black"/>
<path d="M30.8252 30.6353L20.4198 19.0293L18.7549 17.1563L6.85276 3.86137L3.77916 0.42759C3.65945 0.293586 3.51006 0.189428 3.34293 0.123432C3.0922 0.0203203 2.81395 0.00510308 2.55347 0.080257C2.29298 0.155411 2.06561 0.316512 1.90833 0.53734C1.75106 0.758168 1.67316 1.02572 1.6873 1.29646C1.70145 1.5672 1.8068 1.82518 1.98623 2.02842L5.06383 5.47021C1.89862 8.743 0.09049 13.0932 0.00330554 17.6453C-0.0838789 22.1975 1.55635 26.6137 4.59392 30.0053C7.63149 33.3969 11.8409 35.5121 16.3751 35.9253C20.9093 36.3384 25.4317 35.0188 29.0323 32.2321L32.0298 35.5819C32.1426 35.708 32.2808 35.8088 32.4353 35.8778C32.5898 35.9467 32.7571 35.9823 32.9263 35.9821C33.1579 35.9816 33.3844 35.9142 33.5785 35.7879C33.7726 35.6617 33.9261 35.482 34.0204 35.2705C34.1147 35.059 34.1459 34.8247 34.1101 34.596C34.0743 34.3672 33.9731 34.1536 33.8188 33.981L30.8252 30.6353ZM16.5378 25.4326C16.4308 25.609 16.2801 25.7549 16.1003 25.8561C15.9205 25.9573 15.7176 26.0105 15.5113 26.0105C15.3049 26.0105 15.102 25.9573 14.9222 25.8561C14.7424 25.7549 14.5917 25.609 14.4847 25.4326L11.191 20.0058C11.109 19.871 11.0544 19.7213 11.0302 19.5654C11.0061 19.4095 11.0129 19.2503 11.0502 19.097C11.0876 18.9437 11.1547 18.7993 11.2479 18.672C11.3411 18.5446 11.4584 18.4369 11.5932 18.3549C11.728 18.2729 11.8777 18.2183 12.0336 18.1941C12.1895 18.17 12.3487 18.1768 12.5019 18.2141C12.6552 18.2515 12.7997 18.3186 12.927 18.4118C13.0544 18.505 13.1621 18.6223 13.2441 18.7571L15.5173 22.4951L17.4623 19.2934L19.1351 21.1624L16.5378 25.4326Z" fill="url(#paint0_linear)"/>
<defs>
<linearGradient id="paint0_linear" x1="-1.14932e-06" y1="35.9996" x2="36.6946" y2="28.7604" gradientUnits="userSpaceOnUse">
<stop stop-color="#7000E9"/>
<stop offset="0.22631" stop-color="#FF00C5"/>
<stop offset="0.507577" stop-color="#FF0076"/>
<stop offset="1" stop-color="#005CE3"/>
</linearGradient>
</defs>
</svg>
